Coordinates
version=1
nRows=19
nColumns=21
inDegrees=yes

Units are S.I. units (second, meters, Newtons, ...)
If the header above contains a line with 'inDegrees', this indicates whether rotational values are in degrees (yes) or radians (no).

endheader
time	sternoclavicular_r2	sternoclavicular_r3	unrotscap_r3	unrotscap_r2	acromioclavicular_r2	acromioclavicular_r3	acromioclavicular_r1	unrothum_r1	unrothum_r3	unrothum_r2	elv_angle	shoulder_elev	shoulder1_r2	shoulder_rot	elbow_flexion	pro_sup	deviation	flexion	wrist_hand_r1	wrist_hand_r3
      5.05050505	     -4.81292698	      2.03852871	     -2.03852871	      4.81292698	     -0.97451981	      7.87572632	      3.54008478	     -3.54008478	     -7.87572632	      0.97451981	    -38.18545322	     19.88808344	     38.18545322	     17.46833432	    129.51204179	      0.00000000	      0.00000000	     -0.00000000	     -0.00000000	      0.00000000
      5.15151515	     -4.61369117	      1.95414182	     -1.95414182	      4.61369117	     -0.93417861	      7.54970294	      3.39353951	     -3.39353951	     -7.54970294	      0.93417861	    -39.77943478	     19.06479681	     39.77943478	     17.37270317	    129.01619459	      0.00000000	      0.00000000	     -0.00000000	     -0.00000000	      0.00000000
      5.25252525	     -4.44339305	      1.88201158	     -1.88201158	      4.44339305	     -0.89969671	      7.27103231	      3.26827898	     -3.26827898	     -7.27103231	      0.89969671	    -41.01092674	     18.36108715	     41.01092674	     17.37340572	    128.46604777	      0.00000000	      0.00000000	     -0.00000000	     -0.00000000	      0.00000000
      5.35353535	     -4.27594994	      1.81109058	     -1.81109058	      4.27594994	     -0.86579288	      6.99703353	      3.14511842	     -3.14511842	     -6.99703353	      0.86579288	    -42.29135117	     17.66917501	     42.29135117	     17.36080232	    127.88042649	      0.00000000	      0.00000000	     -0.00000000	     -0.00000000	      0.00000000
      5.45454545	     -4.12950925	      1.74906522	     -1.74906522	      4.12950925	     -0.83614162	      6.75740248	      3.03740591	     -3.03740591	     -6.75740248	      0.83614162	    -43.40698060	     17.06404958	     43.40698060	     17.41158752	    127.31305258	      0.00000000	      0.00000000	     -0.00000000	     -0.00000000	      0.00000000
      5.55555556	     -3.99392360	      1.69163754	     -1.69163754	      3.99392360	     -0.80868829	      6.53553428	      2.93767768	     -2.93767768	     -6.53553428	      0.80868829	    -44.40993477	     16.50377956	     44.40993477	     17.49079818	    126.73435577	      0.00000000	      0.00000000	     -0.00000000	     -0.00000000	      0.00000000
      5.65656566	     -3.86391233	      1.63657090	     -1.63657090	      3.86391233	     -0.78236365	      6.32278782	      2.84204961	     -2.84204961	     -6.32278782	      0.78236365	    -45.39834446	     15.96654411	     45.39834446	     17.57574014	    126.15121350	      0.00000000	      0.00000000	     -0.00000000	     -0.00000000	      0.00000000
      5.75757576	     -3.73692704	      1.58278592	     -1.58278592	      3.73692704	     -0.75665171	      6.11499296	      2.74864725	     -2.74864725	     -6.11499296	      0.75665171	    -46.43367202	     15.44181265	     46.43367202	     17.65361101	    125.56723800	      0.00000000	      0.00000000	     -0.00000000	     -0.00000000	      0.00000000
      5.85858586	     -3.61260966	      1.53013095	     -1.53013095	      3.61260966	     -0.73147997	      5.91156382	      2.65720725	     -2.65720725	     -5.91156382	      0.73147997	    -47.53776998	     14.92810564	     47.53776998	     17.72080863	    124.98473389	      0.00000000	      0.00000000	     -0.00000000	     -0.00000000	      0.00000000
      5.95959596	     -3.49162971	      1.47888955	     -1.47888955	      3.49162971	     -0.70698399	      5.71359594	      2.56822205	     -2.56822205	     -5.71359594	      0.70698399	    -48.70514789	     14.42818962	     48.70514789	     17.77905578	    124.40524407	      0.00000000	      0.00000000	     -0.00000000	     -0.00000000	      0.00000000
      6.06060606	     -3.37391698	      1.42903199	     -1.42903199	      3.37391698	     -0.68314956	      5.52097442	      2.48164000	     -2.48164000	     -5.52097442	      0.68314956	    -49.84738157	     13.94177444	     49.84738157	     17.78568380	    123.82216880	      0.00000000	      0.00000000	     -0.00000000	     -0.00000000	      0.00000000
      6.16161616	     -3.26694203	      1.38372245	     -1.38372245	      3.26694203	     -0.66148931	      5.34592389	      2.40295600	     -2.40295600	     -5.34592389	      0.66148931	    -51.05829117	     13.49973020	     51.05829117	     17.92495691	    123.26191726	      0.00000000	      0.00000000	     -0.00000000	     -0.00000000	      0.00000000
      6.26262626	     -3.15724522	      1.33726006	     -1.33726006	      3.15724522	     -0.63927793	      5.16641939	      2.32226996	     -2.32226996	     -5.16641939	      0.63927793	    -52.40433061	     13.04643860	     52.40433061	     17.96037683	    122.69880458	      0.00000000	      0.00000000	     -0.00000000	     -0.00000000	      0.00000000
      6.36363636	     -3.05274855	      1.29300020	     -1.29300020	      3.05274855	     -0.61811948	      4.99542424	      2.24540881	     -2.24540881	     -4.99542424	      0.61811948	    -53.76812204	     12.61463515	     53.76812204	     17.99584093	    122.14260539	      0.00000000	      0.00000000	     -0.00000000	     -0.00000000	      0.00000000
      6.46464646	     -2.95008867	      1.24951832	     -1.24951832	      2.95008867	     -0.59733295	      4.82743476	      2.16989870	     -2.16989870	     -4.82743476	      0.59733295	    -55.09880974	     12.19042173	     55.09880974	     17.93741077	    121.58329211	      0.00000000	      0.00000000	     -0.00000000	     -0.00000000	      0.00000000
      6.56565657	     -2.85877504	      1.21084218	     -1.21084218	      2.85877504	     -0.57884379	      4.67801193	      2.10273417	     -2.10273417	     -4.67801193	      0.57884379	    -56.33903585	     11.81309352	     56.33903585	     17.99346179	    121.04459336	      0.00000000	      0.00000000	     -0.00000000	     -0.00000000	      0.00000000
      6.66666667	     -2.77208597	      1.17412478	     -1.17412478	      2.77208597	     -0.56129102	      4.53615660	      2.03897117	     -2.03897117	     -4.53615660	      0.56129102	    -57.56933703	     11.45487505	     57.56933703	     18.04446276	    120.51552629	      0.00000000	      0.00000000	     -0.00000000	     -0.00000000	      0.00000000
      6.76767677	     -2.69024856	      1.13946232	     -1.13946232	      2.69024856	     -0.54472061	      4.40224035	      1.97877674	     -1.97877674	     -4.40224035	      0.54472061	    -58.76625842	     11.11670466	     58.76625842	     18.09851372	    119.99789721	      0.00000000	      0.00000000	     -0.00000000	     -0.00000000	      0.00000000
      6.86868687	     -2.61307825	      1.10677661	     -1.10677661	      2.61307825	     -0.52909519	      4.27596122	      1.92201514	     -1.92201514	     -4.27596122	      0.52909519	    -59.92094351	     10.79781980	     59.92094351	     18.15524029	    119.49258255	      0.00000000	      0.00000000	     -0.00000000	     -0.00000000	      0.00000000
